<?xml version="1.0" encoding="UTF-8"?>
<svg id="Layer_2" data-name="Layer 2" xmlns="http://www.w3.org/2000/svg" viewBox="0 0 321.35 329.78">
  <g id="Layer_1-2" data-name="Layer 1">
    <g>
      <path d="m151.28,264.1h-17.56v16.85h17.56c1.7,0,2.55-.85,2.55-2.55v-11.74c0-1.7-.85-2.55-2.55-2.55Z"/>
      <path d="m152.31,248.37v-9.7c0-1.7-.85-2.55-2.55-2.55h-16.03v14.81h16.03c1.7,0,2.55-.85,2.55-2.55Z"/>
      <path d="m0,0v329.78h321.35V0H0Zm280.42,101.88c3.09.71,4.71,3.94,3.62,7.23-.65,1.95-1.7,3.27-3.8,4.79-.88.64-2.25,1.41-3.03,1.72-.78.31-8.37,1.89-16.86,3.51-17.49,3.34-29.61,5.78-38.04,7.65-3.18.71-6.21,1.25-6.74,1.21-1.43-.11-2.5-1.7-2.23-3.29.47-2.69,1.64-3.27,14.92-7.42,52.57-16.44,50.4-15.8,52.15-15.4Zm-61.73,41.11c-2.9-.22-5.58-.42-5.96-.44-3.94-.23-4.41-3.07-.84-5.01,1.99-1.08,2.35-1.12,16.38-1.84,6.63-.34,20.12-1.05,29.99-1.57,9.87-.52,18.53-.83,19.25-.69,2.54.5,3.69,3.07,2.53,5.69-.57,1.3-3.92,4.61-5.4,5.35-2.57,1.28-5.93,1.86-9.76,1.7-4.79-.21-29-1.87-46.19-3.18Zm41.34,26.08c-.42.38-1.6,1.15-2.61,1.69-2.35,1.27-4.14,1.64-6.81,1.39-3.2-.3-49.01-16.81-50.25-18.11-1.67-1.77-.33-3.4,3.38-4.13,1.66-.33,4.1.17,19.03,3.91,9.42,2.36,20.9,5.22,25.51,6.36,11.76,2.9,12.84,3.27,13.29,4.58.4,1.15-.35,3.22-1.55,4.31Zm15.52-92.47c.95,3-.51,6.28-3.69,8.25-.71.44-2.37,1.26-3.69,1.81-3.08,1.29-30.56,14.21-39.5,18.57-3.77,1.84-8.61,4.19-10.74,5.22-2.13,1.03-4.39,1.88-5.02,1.89-1.44.02-3.02-1.54-3.14-3.09-.17-2.21,1.37-3.38,19.82-14.99,22.94-14.43,34.22-21.4,35.47-21.9,4.61-1.84,9.14-.01,10.49,4.24Zm-20.4-24.4c1.38,2.21,1.57,3.54.82,5.53-.81,2.16-2.45,3.63-10.72,9.64-12.14,8.82-38.08,28.44-39.96,30.22-.28.26-1.31.45-2.3.43-2.84-.07-4.37-2.16-3.25-4.42.86-1.72,43.85-43,45.98-44.14,3.28-1.76,7.35-.57,9.42,2.75Zm-37.81-14.85c2.59-1.64,5.55-2.14,7.83-1.32,2.67.96,3.54,2.1,3.42,4.46-.17,3.25-.25,3.37-18.23,24.27-5.99,6.96-12.24,14.28-13.9,16.27-4.09,4.9-7.03,7.64-8.52,7.95-2.36.49-4.19-1.31-3.65-3.59.22-.93,24.66-37.9,29.25-44.25,1.52-2.1,2.17-2.75,3.8-3.78Zm-44.59,31.42c.43-1.34,1.64-5.19,2.68-8.56,2.81-9.04,5.75-16.8,7.27-19.18,2.56-4,6.61-6.34,9.62-5.54,1.71.45,2.44,1.15,3,2.86.53,1.64.07,3.06-3.28,10.08-1.52,3.17-3.75,7.86-4.95,10.41-1.21,2.55-3.11,6.53-4.23,8.83-1.12,2.31-2.96,6.15-4.09,8.54-4.51,9.54-5.41,11.02-7.11,11.76-.98.42-2.81.3-3.3-.23-.27-.28-.58-.85-.69-1.25-.17-.63,1.71-7.2,5.08-17.72Zm-21.52,21.94c.21-2.85.46-6.79.57-8.77.42-7.66,1.18-18.41,1.45-20.55.4-3.09,1.63-5.49,3.92-7.66,1.62-1.54,2.08-1.79,3.37-1.87,1.16-.07,1.71.13,2.42.88,1.33,1.4,1.09,3.99-1.44,15.85-2.46,11.54-2.93,13.75-4.15,19.56-.49,2.35-1.2,5.03-1.57,5.94-.8,1.97-2.35,3.57-3.34,3.45-1.34-.16-1.61-1.66-1.23-6.84Zm-15.91-9.84c1.03-2.15,1.87-2.42,3.14-1,.95,1.07,1.13,1.87,3.83,17.04,1.76,9.92,1.82,11.48.48,12.27-.32.19-.72.19-.9,0-.38-.41-5.72-15.99-6.87-20.04-.93-3.29-.83-5.88.32-8.27Zm-5.03,20.13c.51.24,9.5,20.04,10.27,22.63.74,2.47.45,4.29-.67,4.26-.19,0-.62-.29-.95-.64-.9-.95-9.8-22.25-10.02-23.97-.19-1.53.51-2.69,1.37-2.28Zm-.34,24.03c.71.34,8.43,16.22,8.72,17.93.33,1.98-.26,4.17-1.43,5.27-.55.52-1.16.94-1.35.94-.19,0-.74-.42-1.21-.92-1.09-1.15-6.05-17.5-6.2-20.43-.1-2.06.52-3.25,1.48-2.79Zm-51.25-44.11c1.3-1.55,4.22-1.34,7.73.55,1.57.84,17.48,13.2,18.86,14.65.34.36.41.76.18.99-.22.21-.84.27-1.37.14-1.32-.32-4.15-1.73-8.78-4.4-14.07-8.08-15.63-9.04-16.43-10.04-.75-.94-.77-1.18-.18-1.89Zm11.44,55.7c-.23.87-1.87,2.78-3.89,4.52-1.01.87-7.59,6.26-14.62,11.98-13.98,11.36-14.99,12.03-17.9,11.76-1.53-.14-1.88-.34-3.4-1.94-2.1-2.22-2.54-3.88-1.61-6.15,1.04-2.55,3.33-4.36,12.89-10.17,4.76-2.89,11.87-7.23,15.8-9.63,7.88-4.81,9.14-5.29,10.89-4.06,1.15.81,2.1,2.71,1.84,3.7Zm-38.5-43.74c3.97-1.21,7.3-.75,18.25,2.53,19.06,5.7,19.22,5.77,18.66,7.44-.31.93-.23.87-1.34,1.14-.49.12-1.96.23-3.27.25-2.72.03-30.76-3.43-33.64-4.16-2.02-.51-3.77-1.94-3.74-3.06.03-1.15,2.86-3.45,5.08-4.13Zm-14.84,35.88c.95-1.76,4.52-4.53,7.21-5.59,2.36-.93,33.85-6.48,36.53-6.44,1.85.03,2.95.92,2.57,2.07-.38,1.16-2.68,3.12-4.57,3.9-1.96.81-4.47,1.62-23.68,7.62-15.05,4.7-16.79,5.04-18.19,3.57-.9-.95-.84-3.33.13-5.13Zm45.08,165.37h-45.85v-71.17h45.13v13.38h-29.51v14.6h26.75v13.17h-26.75v16.64h30.22v13.38Zm3.8-116.03c-3.65,1.84-7.3.85-7.83-2.11-.43-2.35.17-3.25,14.28-21.52,6.79-8.79,9.42-11.51,11.3-11.68,1.44-.13,2.45.73,2.33,1.97-.05.47-.7,2.04-1.45,3.49-1.87,3.62-12.85,23.65-13.85,25.28-.94,1.52-3.4,3.88-4.78,4.58Zm20.37,116.03h-14.81v-71.17h14.81v71.17Zm7.33-125.41c-.1-1.07,2.36-18.51,3.27-23.26.39-2,1.94-5.26,2.98-6.25.42-.4,1.08-.55,1.76-.39,1.01.24,1.1.34,1.3,1.45.46,2.53.35,21.41-.13,23.06-.62,2.15-2.3,5.1-3.59,6.32-.53.5-1.6,1.11-2.36,1.34-1.73.53-3.07-.42-3.24-2.29Zm56.07,110.4c0,4.9-1.29,8.65-3.88,11.23s-6.23,3.78-11.13,3.78h-36.35v-71.17h34.72c4.9,0,8.61,1.29,11.13,3.88,2.59,2.52,3.88,6.23,3.88,11.13v8.17c0,5.79-2.72,9.53-8.17,11.23,3.27.54,5.72,1.8,7.35,3.78,1.63,1.97,2.45,4.56,2.45,7.76v10.21Zm24.74,15.01h-14.81v-51.77h14.81v51.77Zm.2-57.69h-15.21v-13.48h15.21v13.48Zm0-49.64c-1.88.11-3.49-.42-5.75-1.91-1.45-.95-3.43-3.1-11.9-12.89-13.4-15.5-15.03-17.48-15.15-18.4-.15-1.19.85-1.33,2.72-.37,2.02,1.04,6.18,4.93,21.29,19.9,9.94,9.85,10.66,10.63,10.85,11.7.26,1.45-.16,1.85-2.07,1.96Zm-9.27-27.94c-.77-1.59,1.67-2.21,4.57-1.17,1.21.43,7.98,4.57,17.7,10.82,8.66,5.57,16.62,10.66,17.69,11.32,2.87,1.77,5.49,4.15,5.55,5.04.06.94-.79,1.71-2.34,2.15-4.1,1.15-8.21-.52-15.92-6.48-2.78-2.14-8.35-6.43-12.39-9.53-9.77-7.48-14.45-11.32-14.86-12.16Zm51.04,135.27h-13.07c-4.7,0-8.3-1.22-10.82-3.68-2.45-2.52-3.68-6.13-3.68-10.82v-24.1h-7.15v-12.76h7.15v-13.99h14.81v13.99h12.46v12.76h-12.46v23.28c0,1.7.85,2.55,2.55,2.55h10.21v12.76Zm48.89-12.05c0,4.09-1.22,7.18-3.68,9.29-2.45,2.11-6.02,3.17-10.72,3.17h-13.78c-4.56,0-8.07-1.12-10.52-3.37-2.45-2.32-3.68-5.68-3.68-10.11v-3.68h14.4v3.37c0,1.7.85,2.55,2.55,2.55h8.58c1.7,0,2.55-.71,2.55-2.14v-3.57c0-1.16-.68-1.87-2.04-2.14l-18.79-4.6c-1.57-.34-3.06-1.26-4.49-2.76-1.43-1.5-2.14-3.57-2.14-6.23v-7.45c0-4.08,1.22-7.18,3.68-9.29,2.52-2.11,6.13-3.16,10.82-3.16h12.35c4.56,0,8.03,1.16,10.42,3.47,2.45,2.25,3.68,5.58,3.68,10.01v2.96h-14.4v-2.65c0-1.7-.85-2.55-2.55-2.55h-6.94c-1.02,0-1.74.2-2.15.61-.34.34-.51.78-.51,1.33v3.88c0,.54.1.99.31,1.33.2.27.61.48,1.22.61l17.97,4.39c2.59.61,4.53,1.67,5.82,3.16,1.36,1.5,2.04,3.27,2.04,5.31v8.27Z"/>
    </g>
  </g>
</svg>