<svg width="512" height="512" viewBox="0 0 512 512" fill="none" xmlns="http://www.w3.org/2000/svg">
<rect width="512" height="512" fill="#15002A"/>
<path d="M194.443 393.154C187.3 393.154 181.64 391.176 177.463 387.219C173.287 383.208 171.199 377.493 171.199 370.074V356.227C171.199 348.808 173.287 343.121 177.463 339.164C181.64 335.153 187.3 333.147 194.443 333.147C201.532 333.147 207 335.098 210.847 338.999C214.748 342.846 216.699 348.149 216.699 354.908V355.402H205.983V354.578C205.983 351.171 205.022 348.368 203.098 346.17C201.23 343.972 198.345 342.873 194.443 342.873C190.597 342.873 187.575 344.055 185.376 346.418C183.178 348.781 182.079 351.995 182.079 356.062V370.239C182.079 374.251 183.178 377.465 185.376 379.883C187.575 382.246 190.597 383.428 194.443 383.428C198.345 383.428 201.23 382.329 203.098 380.13C205.022 377.877 205.983 375.075 205.983 371.723V370.239H216.699V371.393C216.699 378.152 214.748 383.483 210.847 387.384C207 391.231 201.532 393.154 194.443 393.154ZM232.158 392V382.438H241.225V343.862H232.158V334.301H261.173V343.862H252.106V382.438H261.173V392H232.158ZM278.675 392V334.301H298.87L308.844 384.582H310.327L320.301 334.301H340.496V392H329.945V342.296H328.461L318.57 392H300.601L290.71 342.296H289.226V392H278.675Z" fill="white"/>
<path d="M179.378 416.891H175.025V422H173.933V410.571H179.882V411.563H175.025V415.899H179.378V416.891ZM196.508 414.991V417.563C196.508 418.493 196.351 419.305 196.037 420C195.723 420.683 195.264 421.216 194.659 421.597C194.065 421.978 193.337 422.168 192.474 422.168C191.186 422.168 190.188 421.748 189.482 420.908C188.788 420.067 188.44 418.952 188.44 417.563V414.991C188.44 414.061 188.597 413.255 188.911 412.571C189.225 411.888 189.684 411.356 190.289 410.975C190.894 410.594 191.623 410.403 192.474 410.403C193.326 410.403 194.048 410.594 194.642 410.975C195.247 411.356 195.707 411.888 196.02 412.571C196.345 413.255 196.508 414.061 196.508 414.991ZM195.365 414.991C195.365 413.86 195.113 412.98 194.609 412.353C194.116 411.714 193.404 411.395 192.474 411.395C191.555 411.395 190.844 411.714 190.34 412.353C189.835 412.98 189.583 413.86 189.583 414.991V417.563C189.583 418.683 189.835 419.569 190.34 420.218C190.844 420.857 191.555 421.176 192.474 421.176C193.404 421.176 194.116 420.857 194.609 420.218C195.113 419.569 195.365 418.683 195.365 417.563V414.991ZM207.707 417.328V422H206.615V410.571H210.026C211.057 410.571 211.853 410.846 212.413 411.395C212.984 411.933 213.27 412.661 213.27 413.58V414.302C213.27 414.986 213.108 415.574 212.783 416.067C212.458 416.56 211.987 416.913 211.371 417.126C211.864 417.899 212.323 418.695 212.749 419.513C213.186 420.331 213.589 421.16 213.959 422H212.682C212.346 421.193 211.976 420.403 211.573 419.63C211.169 418.846 210.738 418.078 210.278 417.328H207.707ZM210.026 411.563H207.707V416.336H210.026C210.654 416.336 211.158 416.157 211.539 415.798C211.931 415.428 212.127 414.93 212.127 414.302V413.58C212.127 412.941 211.931 412.448 211.539 412.101C211.158 411.742 210.654 411.563 210.026 411.563ZM244.558 422V410.571H245.869C246.598 411.669 247.275 412.751 247.903 413.815C248.542 414.868 249.152 415.944 249.735 417.042C250.318 418.14 250.883 419.288 251.432 420.487L251.281 415.479V410.571H252.374V422H251.063C250.222 420.196 249.36 418.487 248.474 416.874C247.6 415.249 246.637 413.619 245.584 411.983L245.651 417.109V422H244.558ZM270.547 414.991V417.563C270.547 418.493 270.39 419.305 270.077 420C269.763 420.683 269.303 421.216 268.698 421.597C268.105 421.978 267.376 422.168 266.514 422.168C265.225 422.168 264.228 421.748 263.522 420.908C262.827 420.067 262.48 418.952 262.48 417.563V414.991C262.48 414.061 262.637 413.255 262.95 412.571C263.264 411.888 263.724 411.356 264.329 410.975C264.934 410.594 265.662 410.403 266.514 410.403C267.365 410.403 268.088 410.594 268.682 410.975C269.287 411.356 269.746 411.888 270.06 412.571C270.385 413.255 270.547 414.061 270.547 414.991ZM269.404 414.991C269.404 413.86 269.152 412.98 268.648 412.353C268.155 411.714 267.443 411.395 266.514 411.395C265.595 411.395 264.883 411.714 264.379 412.353C263.875 412.98 263.623 413.86 263.623 414.991V417.563C263.623 418.683 263.875 419.569 264.379 420.218C264.883 420.857 265.595 421.176 266.514 421.176C267.443 421.176 268.155 420.857 268.648 420.218C269.152 419.569 269.404 418.683 269.404 417.563V414.991ZM281.746 417.328V422H280.654V410.571H284.066C285.097 410.571 285.892 410.846 286.452 411.395C287.024 411.933 287.31 412.661 287.31 413.58V414.302C287.31 414.986 287.147 415.574 286.822 416.067C286.497 416.56 286.027 416.913 285.41 417.126C285.903 417.899 286.363 418.695 286.789 419.513C287.226 420.331 287.629 421.16 287.999 422H286.721C286.385 421.193 286.015 420.403 285.612 419.63C285.209 418.846 284.777 418.078 284.318 417.328H281.746ZM284.066 411.563H281.746V416.336H284.066C284.693 416.336 285.197 416.157 285.578 415.798C285.971 415.428 286.167 414.93 286.167 414.302V413.58C286.167 412.941 285.971 412.448 285.578 412.101C285.197 411.742 284.693 411.563 284.066 411.563ZM298.363 415.613L299.288 420.403L302.162 410.571H303.22L306.111 420.437L307.036 415.613L308.111 410.571H309.136L306.666 422H305.557L302.683 412.134L299.775 422H298.649L296.195 410.571H297.288L298.363 415.613ZM324.228 422L323.253 419.059H318.631L317.673 422H316.631L320.429 410.571H321.522L325.337 422H324.228ZM319.673 415.899L318.95 418.084H322.917L322.194 415.899L320.934 412L319.673 415.899ZM336.278 417.462V422H335.185V417.462L331.689 410.571H332.866L335.773 416.336L338.631 410.571H339.757L336.278 417.462Z" fill="white"/>
<path d="M278.228 87.0078C330.129 87.6651 372 129.943 372 182V224L371.992 225.228C371.335 277.129 329.057 319 277 319H235C182.533 319 140 276.467 140 224V182C140 129.943 181.871 87.6651 233.772 87.0078L235 87H277L278.228 87.0078ZM271 258.133C266.555 260.596 261.442 262 256 262L255.2 261.99C250.057 261.86 245.227 260.475 241 258.133V288C241 296.284 247.716 303 256 303C264.284 303 271 296.284 271 288V258.133ZM200.79 110.771C174.578 123.384 156.399 150.038 156.007 180.979L156 182V224C156 255.376 174.291 282.479 200.792 295.229C187.904 281.612 180 263.229 180 243V163C180 142.772 187.903 124.389 200.79 110.771ZM311.21 110.772C324.096 124.39 332 142.772 332 163V243L331.994 243.982C331.743 263.824 323.887 281.832 311.209 295.229C337.709 282.478 356 255.375 356 224V182C356 150.625 337.71 123.523 311.21 110.772ZM225 246.337C220.687 248.672 215.749 250 210.5 250L209.713 249.99C204.796 249.866 200.168 248.577 196.095 246.39C197.246 267.071 208.872 284.955 225.754 294.828C225.316 292.882 225.062 290.866 225.01 288.8L225 288V246.337ZM316 226.337C311.687 228.672 306.749 230 301.5 230L300.713 229.99C295.757 229.865 291.097 228.555 287 226.337V288L286.99 288.8C286.938 290.866 286.683 292.882 286.245 294.828C304.043 284.419 316 265.107 316 243V226.337ZM256 160C247.716 160 241 166.716 241 175V231C241 239.284 247.716 246 256 246C264.284 246 271 239.284 271 231V175C271 166.716 264.284 160 256 160ZM210.5 192C202.617 192 196.203 198.291 196.005 206.126L196 206.5V219.5C196 227.508 202.492 234 210.5 234C218.508 234 225 227.508 225 219.5V206.5C225 198.492 218.508 192 210.5 192ZM301.5 172C293.617 172 287.203 178.291 287.005 186.126L287 186.5V199.5C287 207.508 293.492 214 301.5 214C309.508 214 316 207.508 316 199.5V186.5C316 178.492 309.508 172 301.5 172ZM225.757 111.168C208.165 121.455 196.281 140.441 196.005 162.225L196 163V179.661C200.313 177.326 205.251 176 210.5 176L211.287 176.01C216.242 176.135 220.903 177.444 225 179.662V118C225 115.652 225.262 113.366 225.757 111.168ZM286.244 111.17C286.738 113.368 287 115.653 287 118V159.661C291.313 157.326 296.251 156 301.5 156L302.287 156.01C307.204 156.134 311.831 157.423 315.904 159.609C314.752 138.928 303.127 121.043 286.244 111.17ZM256 103C247.716 103 241 109.716 241 118V147.866C245.445 145.404 250.558 144 256 144L256.8 144.01C261.943 144.14 266.773 145.525 271 147.866V118C271 109.716 264.284 103 256 103Z" fill="white"/>
</svg>
