<svg width="320" height="320" viewBox="0 0 320 320" fill="none" xmlns="http://www.w3.org/2000/svg">
<path d="M190.658 0.0107422C262.246 0.917282 320 59.2312 320 131.034V188.966L319.989 190.658C319.083 262.246 260.769 320 188.966 320H131.034C58.6661 320 0.00016201 261.334 0 188.966V131.034C0.000166946 59.2312 57.7539 0.917277 129.342 0.0107422L131.034 0H188.966L190.658 0.0107422ZM180.689 236.046C174.558 239.443 167.506 241.379 160 241.379L158.896 241.366C151.803 241.187 145.14 239.276 139.311 236.046V277.241C139.311 288.668 148.573 297.931 160 297.931C171.427 297.931 180.689 288.668 180.689 277.241V236.046ZM83.8477 32.7891C47.6943 50.1851 22.6189 86.9491 22.0781 129.626L22.0693 131.034V188.966C22.0695 232.242 47.2978 269.625 83.8496 287.212C66.0744 268.429 55.173 243.074 55.1729 215.173V104.827C55.173 76.9263 66.0733 51.5719 83.8477 32.7891ZM236.151 32.7891C253.926 51.572 264.827 76.9261 264.827 104.827V215.173L264.819 216.527C264.473 243.894 253.638 268.733 236.15 287.212C272.702 269.625 297.931 232.242 297.931 188.966V131.034C297.931 87.7583 272.703 50.3759 236.151 32.7891ZM117.241 219.775C111.292 222.996 104.481 224.827 97.2412 224.827L96.1553 224.814C89.3732 224.643 82.9907 222.864 77.3721 219.848C78.9606 248.373 94.9956 273.042 118.281 286.66C117.678 283.975 117.327 281.195 117.255 278.345L117.241 277.241V219.775ZM242.759 192.189C236.81 195.41 229.999 197.241 222.759 197.241L221.673 197.228C214.838 197.054 208.409 195.25 202.759 192.19V277.241L202.745 278.345C202.673 281.195 202.32 283.975 201.717 286.66C226.266 272.303 242.759 245.665 242.759 215.173V192.189ZM160 100.689C148.574 100.689 139.311 109.953 139.311 121.379V198.621C139.311 210.047 148.574 219.311 160 219.311C171.426 219.311 180.689 210.047 180.689 198.621V121.379C180.689 109.953 171.426 100.689 160 100.689ZM97.2412 144.827C86.3681 144.827 77.5218 153.504 77.248 164.312L77.2412 164.827V182.759C77.2413 193.804 86.1957 202.759 97.2412 202.759C108.287 202.759 117.241 193.804 117.241 182.759V164.827C117.241 153.782 108.287 144.827 97.2412 144.827ZM222.759 117.241C211.886 117.241 203.039 125.918 202.766 136.726L202.759 137.241V155.173C202.759 166.218 211.713 175.173 222.759 175.173C233.804 175.173 242.759 166.218 242.759 155.173V137.241C242.759 126.196 233.804 117.241 222.759 117.241ZM118.285 33.335C94.021 47.5233 77.6287 73.7114 77.248 103.758L77.2412 104.827V127.808C83.1897 124.587 90.0019 122.759 97.2412 122.759L98.3271 122.772C105.162 122.946 111.591 124.749 117.241 127.809V42.7588C117.241 39.5208 117.603 36.367 118.285 33.335ZM201.716 33.3379C202.397 36.3691 202.759 39.5218 202.759 42.7588V100.222C208.707 97.0013 215.519 95.1729 222.759 95.1729L223.845 95.1855C230.626 95.3574 237.009 97.1354 242.627 100.151C241.038 71.625 225.003 46.9557 201.716 33.3379ZM160 22.0693C148.573 22.0693 139.311 31.3322 139.311 42.7588V83.9531C145.442 80.5565 152.494 78.6211 160 78.6211L161.104 78.6338C168.197 78.8135 174.86 80.7234 180.689 83.9531V42.7588C180.689 31.3322 171.427 22.0693 160 22.0693Z" fill="white"/>
</svg>
