<?xml version="1.0" encoding="utf-8"?>
<!-- Generator: Adobe Illustrator 27.9.0, SVG Export Plug-In . SVG Version: 6.00 Build 0)  -->
<svg version="1.1" id="Layer_2_00000160148263522436366520000002879684577587989434_"
	 xmlns="http://www.w3.org/2000/svg" xmlns:xlink="http://www.w3.org/1999/xlink" x="0px" y="0px" viewBox="0 0 321.4 329.8"
	 style="enable-background:new 0 0 321.4 329.8;" xml:space="preserve">
<style type="text/css">
	.st0{fill-rule:evenodd;clip-rule:evenodd;fill:url(#SVGID_1_);}
</style>
<g>
	
		<linearGradient id="SVGID_1_" gradientUnits="userSpaceOnUse" x1="288.5062" y1="1000.6105" x2="21.5086" y2="1071.8933" gradientTransform="matrix(1 0 0 1 0 -854.19)">
		<stop  offset="0" style="stop-color:#10B453"/>
		<stop  offset="0.36" style="stop-color:#00DE5B"/>
		<stop  offset="0.57" style="stop-color:#01BEFE"/>
		<stop  offset="0.8" style="stop-color:#0185FE"/>
		<stop  offset="1" style="stop-color:#6210B4"/>
	</linearGradient>
	<path class="st0" d="M278,236.6c-2.9,1.6-5,1.9-8.2,1.7c-3.9-0.4-59.2-20.3-60.6-21.9c-2.1-2.2-0.4-4.1,4.1-5
		c2.1-0.4,5,0.2,22.9,4.7c11.3,2.9,25.2,6.3,30.8,7.7c14.2,3.5,15.5,4,16.1,5.6c0.5,1.3-0.5,3.9-1.8,5.2
		C280.7,234.9,279.3,235.9,278,236.6L278,236.6z M298.8,204.9c-3.1,1.6-7.1,2.3-11.8,2.1c-5.8-0.2-35-2.3-55.8-3.9
		c-3.5-0.2-6.8-0.5-7.2-0.5c-4.7-0.2-5.3-3.7-1-6c2.4-1.3,2.9-1.3,19.8-2.2c8-0.4,24.3-1.3,36.2-1.9s22.3-1,23.2-0.8
		c3,0.6,4.5,3.7,3,6.9C304.7,199.9,300.6,203.9,298.8,204.9L298.8,204.9z M242.9,256.2c-5,1.3-9.9-0.6-19.2-7.8
		c-3.4-2.5-10.1-7.7-15-11.5c-11.8-9.1-17.4-13.6-18-14.7c-1-1.9,2.1-2.7,5.6-1.4c1.4,0.5,9.7,5.6,21.4,13
		c10.5,6.8,20,12.9,21.4,13.6c3.5,2.2,6.6,5,6.8,6C245.8,254.7,244.7,255.7,242.9,256.2L242.9,256.2z M305.6,167.9
		c-1.1,0.7-2.7,1.7-3.6,2.1c-1,0.4-10.1,2.3-20.4,4.2c-21.1,4-35.7,7-45.9,9.3c-3.9,0.8-7.5,1.6-8.1,1.4c-1.7-0.1-3-2.1-2.7-4
		c0.6-3.3,1.9-4,18-8.9c63.5-19.8,60.9-19.1,63-18.6c3.7,0.8,5.7,4.7,4.3,8.7C309.4,164.6,308.1,166.1,305.6,167.9L305.6,167.9z
		 M202,256c-2.3,0.1-4.2-0.5-7-2.3c-1.7-1.1-4.1-3.7-14.4-15.6c-16.2-18.7-18.1-21.1-18.2-22.2c-0.1-1.4,1.1-1.6,3.3-0.5
		c2.4,1.2,7.5,5.9,25.7,24c12,12,12.9,12.8,13.2,14.1C204.8,255.4,204.3,255.8,202,256L202,256z M295.6,132.8
		c-0.8,0.5-2.9,1.6-4.5,2.2c-3.7,1.6-36.9,17.1-47.7,22.5c-4.6,2.2-10.4,5.1-12.9,6.3s-5.3,2.3-6,2.3c-1.7,0-3.6-1.8-3.7-3.7
		c-0.2-2.7,1.7-4.1,23.9-18.1c27.6-17.4,41.3-25.8,42.9-26.4c5.6-2.2,11,0,12.7,5.1C301.1,126.5,299.3,130.5,295.6,132.8
		L295.6,132.8z M263.3,111.8c-14.6,10.6-46,34.3-48.3,36.5c-0.2,0.2-1.4,0.5-2.7,0.5c-3.4-0.1-5.3-2.7-3.9-5.3
		c1.1-2.1,52.9-51.9,55.5-53.2c4-2.2,8.9-0.7,11.3,3.4c1.7,2.7,1.9,4.2,1,6.6C275.3,102.7,273.3,104.6,263.3,111.8L263.3,111.8z
		 M108,236.9c-2.1,0.6-3.7-0.5-3.9-2.8c-0.1-1.3,2.9-22.3,4-28.1c0.5-2.4,2.3-6.4,3.6-7.5c0.5-0.5,1.3-0.7,2.2-0.5
		c1.2,0.2,1.3,0.4,1.6,1.7c0.6,3,0.4,25.8-0.1,27.9c-0.7,2.5-2.8,6.2-4.3,7.6C110.2,235.8,109,236.5,108,236.9L108,236.9z
		 M131.3,210.6c-0.2,0-0.8-0.5-1.4-1.1c-1.3-1.3-7.4-21.1-7.5-24.6c-0.1-2.5,0.6-3.9,1.8-3.4c0.8,0.4,10.1,19.6,10.5,21.6
		c0.4,2.4-0.4,5.1-1.7,6.4C132.3,210.1,131.6,210.6,131.3,210.6L131.3,210.6z M194.1,137.9c-2.9,0.6-5.1-1.6-4.3-4.3
		c0.2-1.1,29.8-45.8,35.3-53.4c1.8-2.5,2.7-3.4,4.6-4.6c3.1-1.9,6.8-2.5,9.4-1.6c3.3,1.2,4.2,2.5,4.1,5.4c-0.2,3.9-0.2,4.1-22,29.3
		c-7.2,8.5-14.7,17.3-16.8,19.7C199.6,134.1,195.9,137.5,194.1,137.9L194.1,137.9z M136.2,184.8c-0.2,0-0.7-0.4-1.1-0.7
		c-1.1-1.1-11.8-26.8-12.1-29c-0.2-1.8,0.6-3.3,1.7-2.8c0.6,0.2,11.5,24.1,12.4,27.3C137.9,182.7,137.5,184.8,136.2,184.8z
		 M70.7,245.5c-4.5,2.2-8.8,1.1-9.4-2.5c-0.5-2.9,0.2-3.9,17.3-26c8.2-10.6,11.3-13.9,13.6-14.1c1.7-0.1,2.9,0.8,2.8,2.4
		c-0.1,0.6-0.8,2.4-1.7,4.2C91,213.8,77.9,238,76.7,240C75.3,241.8,72.4,244.6,70.7,245.5L70.7,245.5z M174.6,136.7
		c-1.2,0.5-3.4,0.4-4-0.2c-0.4-0.4-0.7-1-0.8-1.4c-0.2-0.7,2.1-8.7,6.2-21.4c0.5-1.6,1.9-6.3,3.3-10.4c3.4-10.9,7-20.3,8.8-23.2
		c3.1-4.8,8-7.6,11.6-6.6c2.1,0.6,2.9,1.4,3.6,3.5c0.6,1.9,0.1,3.7-4,12.2c-1.8,3.9-4.6,9.5-5.9,12.6c-1.4,3-3.7,7.8-5.1,10.6
		c-1.3,2.8-3.6,7.5-5,10.3C177.7,134,176.6,135.7,174.6,136.7z M139.7,162.3c-0.4,0.2-0.8,0.2-1.1,0c-0.5-0.5-6.9-19.3-8.3-24.1
		c-1.1-4-1-7.1,0.4-10c1.2-2.7,2.3-2.9,3.7-1.2c1.1,1.3,1.3,2.3,4.6,20.5C141.1,159.4,141.2,161.3,139.7,162.3L139.7,162.3z
		 M151.4,148.3c-1.6-0.2-1.9-2.1-1.4-8.2c0.2-3.4,0.6-8.2,0.7-10.6c0.5-9.3,1.4-22.2,1.7-24.8c0.5-3.7,1.9-6.6,4.7-9.3
		c1.9-1.8,2.5-2.2,4.1-2.3c1.4-0.1,2.1,0.1,2.9,1.1c1.6,1.7,1.3,4.8-1.7,19.1c-3,13.9-3.5,16.7-5,23.7c-0.6,2.8-1.4,6-1.9,7.1
		C154.4,146.4,152.5,148.4,151.4,148.3L151.4,148.3z M71.5,200.8c-1.2,1.1-9.2,7.6-17.6,14.5c-16.9,13.8-18.1,14.5-21.6,14.2
		c-1.8-0.1-2.3-0.4-4.1-2.3c-2.5-2.7-3-4.7-1.9-7.4c1.2-3.1,4-5.3,15.6-12.3c5.8-3.5,14.4-8.7,19.1-11.6c9.5-5.8,11-6.4,13.2-5
		c1.4,1,2.5,3.3,2.2,4.5C75.8,196.4,73.9,198.7,71.5,200.8L71.5,200.8z M62,178.6c-2.4,1-5.4,1.9-28.6,9.2c-18.1,5.7-20.3,6-22,4.3
		c-1.1-1.1-1-4,0.1-6.2c1.2-2.2,5.4-5.4,8.7-6.8c2.9-1.1,40.9-7.8,44.1-7.7c2.2,0,3.5,1.1,3.1,2.5C67.1,175.3,64.3,177.6,62,178.6z
		 M93,147.8c-1.6-0.4-5.1-2.1-10.6-5.3c-17-9.8-18.8-10.9-19.8-12.1c-1-1.1-1-1.4-0.2-2.3c1.6-1.9,5.1-1.6,9.3,0.7
		c1.9,1,21.1,15.9,22.8,17.7c0.4,0.5,0.5,1,0.2,1.2C94.4,147.9,93.6,148,93,147.8L93,147.8z M72.5,156c-0.6,0.1-2.4,0.2-4,0.2
		c-3.3,0-37.2-4.1-40.6-5.1c-2.4-0.6-4.6-2.3-4.5-3.7c0-1.4,3.5-4.1,6.2-5c4.8-1.4,8.8-1,22,3c23.1,6.9,23.2,7,22.6,8.9
		C73.9,155.7,73.9,155.6,72.5,156L72.5,156z"/>
</g>
</svg>
