<svg width="512" height="512" viewBox="0 0 512 512" fill="none" xmlns="http://www.w3.org/2000/svg">
<path d="M286.658 96.0107C358.246 96.9173 416 155.231 416 227.034V284.966L415.989 286.658C415.083 358.246 356.769 416 284.966 416H227.034C154.666 416 96.0002 357.334 96 284.966V227.034C96.0002 155.231 153.754 96.9173 225.342 96.0107L227.034 96H284.966L286.658 96.0107ZM276.689 332.046C270.558 335.443 263.506 337.379 256 337.379L254.896 337.366C247.803 337.187 241.14 335.276 235.311 332.046V373.241C235.311 384.668 244.573 393.931 256 393.931C267.427 393.931 276.689 384.668 276.689 373.241V332.046ZM179.848 128.789C143.694 146.185 118.619 182.949 118.078 225.626L118.069 227.034V284.966C118.069 328.242 143.298 365.625 179.85 383.212C162.074 364.429 151.173 339.074 151.173 311.173V200.827C151.173 172.926 162.073 147.572 179.848 128.789ZM332.151 128.789C349.926 147.572 360.827 172.926 360.827 200.827V311.173L360.819 312.527C360.473 339.894 349.638 364.733 332.15 383.212C368.702 365.625 393.931 328.242 393.931 284.966V227.034C393.931 183.758 368.703 146.376 332.151 128.789ZM213.241 315.775C207.292 318.996 200.481 320.827 193.241 320.827L192.155 320.814C185.373 320.643 178.991 318.864 173.372 315.848C174.961 344.373 190.996 369.042 214.281 382.66C213.678 379.975 213.327 377.195 213.255 374.345L213.241 373.241V315.775ZM338.759 288.189C332.81 291.41 325.999 293.241 318.759 293.241L317.673 293.228C310.838 293.054 304.409 291.25 298.759 288.19V373.241L298.745 374.345C298.673 377.195 298.32 379.975 297.717 382.66C322.266 368.303 338.759 341.665 338.759 311.173V288.189ZM256 196.689C244.574 196.689 235.311 205.953 235.311 217.379V294.621C235.311 306.047 244.574 315.311 256 315.311C267.426 315.311 276.689 306.047 276.689 294.621V217.379C276.689 205.953 267.426 196.689 256 196.689ZM193.241 240.827C182.368 240.827 173.522 249.504 173.248 260.312L173.241 260.827V278.759C173.241 289.804 182.196 298.759 193.241 298.759C204.287 298.759 213.241 289.804 213.241 278.759V260.827C213.241 249.782 204.287 240.827 193.241 240.827ZM318.759 213.241C307.886 213.241 299.039 221.918 298.766 232.726L298.759 233.241V251.173C298.759 262.218 307.713 271.173 318.759 271.173C329.804 271.173 338.759 262.218 338.759 251.173V233.241C338.759 222.196 329.804 213.241 318.759 213.241ZM214.285 129.335C190.021 143.523 173.629 169.711 173.248 199.758L173.241 200.827V223.808C179.19 220.587 186.002 218.759 193.241 218.759L194.327 218.772C201.162 218.946 207.591 220.749 213.241 223.809V138.759C213.241 135.521 213.603 132.367 214.285 129.335ZM297.716 129.338C298.397 132.369 298.759 135.522 298.759 138.759V196.222C304.707 193.001 311.519 191.173 318.759 191.173L319.845 191.186C326.626 191.357 333.009 193.135 338.627 196.151C337.038 167.625 321.003 142.956 297.716 129.338ZM256 118.069C244.573 118.069 235.311 127.332 235.311 138.759V179.953C241.442 176.557 248.494 174.621 256 174.621L257.104 174.634C264.197 174.813 270.86 176.723 276.689 179.953V138.759C276.689 127.332 267.427 118.069 256 118.069Z" fill="white"/>
</svg>
